HIERARCHY
ROOT Hips
{
  OFFSET -32.5998 29.0326 120.673
  CHANNELS 6 Xposition Yposition Zposition Zrotation Xrotation Yrotation
  JOINT LeftUpLeg
  {
    OFFSET 8.64259 1.95398 -2.38835
    CHANNELS 3 Zrotation Xrotation Yrotation
    JOINT LeftLeg
    {
      OFFSET 43.7702 0 0
      CHANNELS 3 Zrotation Xrotation Yrotation
      JOINT LeftFoot
      {
        OFFSET 40.6238 0 0
        CHANNELS 3 Zrotation Xrotation Yrotation
        JOINT LeftToeBase
        {
          OFFSET 12.7242 0 0
          CHANNELS 3 Zrotation Xrotation Yrotation
          End Site
          {
            OFFSET 0 0 0
          }
        }
      }
    }
  }
  JOINT RightUpLeg
  {
    OFFSET -8.2249 1.95398 -2.59336
    CHANNELS 3 Zrotation Xrotation Yrotation
    JOINT RightLeg
    {
      OFFSET 43.5653 0 0
      CHANNELS 3 Zrotation Xrotation Yrotation
      JOINT RightFoot
      {
        OFFSET 40.6238 0 0
        CHANNELS 3 Zrotation Xrotation Yrotation
        JOINT RightToeBase
        {
          OFFSET 12.7242 0 0
          CHANNELS 3 Zrotation Xrotation Yrotation
          End Site
          {
            OFFSET 0 0 0
          }
        }
      }
    }
  }
  JOINT Spine
  {
    OFFSET 0.165834 0.87714 6.61349
    CHANNELS 3 Zrotation Xrotation Yrotation
    JOINT Spine1
    {
      OFFSET 7.38963 1.71661e-005 0
      CHANNELS 3 Zrotation Xrotation Yrotation
      JOINT Spine2
      {
        OFFSET 11.9445 1.14441e-005 0
        CHANNELS 3 Zrotation Xrotation Yrotation
        JOINT Spine3
        {
          OFFSET 14.7254 4.19617e-005 0
          CHANNELS 3 Zrotation Xrotation Yrotation
          JOINT Spine4
          {
            OFFSET 10.9679 0 0
            CHANNELS 3 Zrotation Xrotation Yrotation
            JOINT RightShoulder
            {
              OFFSET 2.46616 -1.6653 3.69651
              CHANNELS 3 Zrotation Xrotation Yrotation
              JOINT RightArm
              {
                OFFSET 13.0012 0 0
                CHANNELS 3 Zrotation Xrotation Yrotation
                JOINT RightForeArm
                {
                  OFFSET 28.7848 1.62311e-005 0
                  CHANNELS 3 Zrotation Xrotation Yrotation
                  JOINT RightHand
                  {
                    OFFSET 26.5688 1.62095e-005 0
                    CHANNELS 3 Zrotation Xrotation Yrotation
                    End Site
                    {
                      OFFSET 0 0 0
                    }
                  }
                }
              }
            }
            JOINT LeftShoulder
            {
              OFFSET 2.38034 -1.29275 -3.7523
              CHANNELS 3 Zrotation Xrotation Yrotation
              JOINT LeftArm
              {
                OFFSET 16.3182 6.07031e-005 0
                CHANNELS 3 Zrotation Xrotation Yrotation
                JOINT LeftForeArm
                {
                  OFFSET 27.0901 0 0
                  CHANNELS 3 Zrotation Xrotation Yrotation
                  JOINT LeftHand
                  {
                    OFFSET 24.5451 1.51738e-005 0
                    CHANNELS 3 Zrotation Xrotation Yrotation
                    End Site
                    {
                      OFFSET 0 0 0
                    }
                  }
                }
              }
            }
            JOINT Neck
            {
              OFFSET 5.0226 -0.0266342 0
              CHANNELS 3 Zrotation Xrotation Yrotation
              JOINT Head
              {
                OFFSET 6.69364 2.86102e-005 0
                CHANNELS 3 Zrotation Xrotation Yrotation
                End Site
                {
                  OFFSET 0 0 0
                }
              }
            }
          }
        }
      }
    }
  }
}
MOTION
Frames:	10
Frame Time:	0.0416667
-340.325 92.8387 312.912 105.592 67.7075 76.262 -175.561 7.51094 86.7654 -34.2079 28.3977 -0.46712 78.3807 10.768 -0.199731 16.4665 -7.84956 4.60516 163.196 -23.6011 89.9293 -28.0102 2.90127 11.7453 53.7507 4.42434 1.76815 20.2879 1.4627 7.35818 -2.36804 6.93977 -89.6683 13.0286 -4.54167 1.2193 1.36483 -4.4836 1.41836 -21.2343 -4.6977 -0.205032 -1.22162 -4.6977 -0.205024 94.7662 -29.2922 -97.371 49.7389 -21.1568 5.0367 -173.609 -7.91475 -148.764 11.5331 -7.64954 -69.1651 -88.6806 -54.7706 81.5813 -17.7554 22.8309 6.28819 11.6643 5.20473 -17.4504 5.87454 -0.0730779 -4.12792 -1.15128 -0.817398 -2.54083 -9.78492 -0.516802 0.619431 
-339.344 94.9288 310.944 102.484 57.4755 78.3877 -175.808 -2.15298 84.9889 -19.1919 17.9367 -0.981712 74.6057 8.59699 -1.1549 17.1931 -7.37603 4.41757 163.161 -6.50989 87.3421 -45.772 -15.5846 4.35486 64.3549 -1.93661 -2.40248 24.2855 0.690866 4.65112 -1.6513 7.56655 -89.6563 11.7581 -3.12275 1.01339 0.0904565 -3.07512 1.14994 -22.4751 -3.2828 0.0270256 -2.46243 -3.28281 0.027018 93.0731 -28.0425 -101.201 47.9747 -20.0014 1.54573 -170.731 -10.9681 -152.108 2.30673 -1.68764 -73.8449 -87.3172 -52.875 83.2223 -14.0409 21.854 -10.3194 4.73138 -10.208 -11.4037 2.14968 0.161574 2.31931 3.25059 0.643975 -1.02965 -8.39145 0.826598 -0.176844 
-338.101 95.766 310.257 98.3366 50.6525 83.6221 -175.64 -5.32001 85.0089 -12.0097 9.93446 -0.458674 72.7653 7.86321 -3.38734 17.4817 -7.84263 5.53421 171.709 9.38069 85.9014 -47.7556 -8.05056 -0.708532 71.026 -5.12311 0.859952 19.3932 4.01315 1.19042 -1.18183 7.90808 -89.7915 11.0655 -2.25586 0.632023 -0.603738 -2.22584 0.730728 -23.1545 -2.34145 -0.0755398 -3.14185 -2.34145 -0.0755376 90.9785 -28.4182 -105.389 45.271 -17.1108 0.0456444 -171.269 -3.14661 -155.098 -1.34007 2.29658 -97.3846 -87.1552 -48.288 82.6998 -14.5954 17.6431 -23.3073 3.83765 -11.2149 -10.3712 6.11679 0.260346 -2.23729 5.14219 1.55899 -4.0195 -6.46362 2.23086 1.70497 
-335.013 95.3059 308.197 97.0937 45.7529 86.6389 -174.342 -7.15307 86.9395 -12.6038 6.48754 -0.256151 75.8085 8.90253 -2.68841 18.1112 -8.1007 6.54421 177.496 16.555 92.1928 -34.3963 -3.70587 -2.12878 68.6641 -3.70313 2.69654 21.1403 4.25179 -2.21321 -0.700555 8.02227 -89.9956 10.8307 -1.39291 0.138888 -0.839472 -1.38544 0.200062 -23.3805 -1.37023 -0.286243 -3.3678 -1.37023 -0.286239 90.7853 -28.9709 -105.576 44.5281 -14.8742 1.22214 -32.2772 -33.6761 -40.0447 -18.4461 -4.7431 -29.0806 -87.9943 -46.8382 81.1419 -12.7592 16.5287 -31.221 10.7567 -1.46602 -18.5794 -0.337675 -0.0830877 -3.53171 4.74521 1.56524 -6.5912 -4.60926 2.69745 2.83027 
-330.538 93.9196 304.744 95.4846 43.1423 90.0132 -172.597 -8.58962 89.4491 -15.4413 4.91055 -0.283683 81.2197 10.3287 -3.59385 20.008 -8.3622 8.8659 179.32 17.9238 95.7569 -12.2019 -8.85394 -0.329341 62.13 -2.14222 -3.34241 25.693 0.0909593 4.75908 -0.330834 8.04694 -90.2384 10.7786 -0.768716 -0.402865 -0.892158 -0.785719 -0.368643 -23.4281 -0.612103 -0.615265 -3.41543 -0.612105 -0.61528 91.343 -29.3924 -104.299 44.9985 -13.5328 2.66564 -17.3852 -11.8914 -33.6245 -16.3931 -0.0511645 -4.91912 -88.0071 -44.8098 80.7191 -12.4094 15.9017 -38.9896 13.1327 3.24103 -20.9968 -0.436762 -0.0857117 -4.08348 5.86326 0.967514 -8.60874 -5.04624 2.54868 2.82413 
-324.887 91.9754 299.869 94.4696 42.5893 91.8473 -170.39 -13.7517 92.0201 -13.7307 4.49583 -0.89434 85.6443 13.187 -4.65453 20.9731 -7.3706 7.99032 -179.598 21.8818 98.3389 -6.53678 -6.60978 0.491054 65.0672 -2.90927 -0.975684 25.6701 0.214319 4.33355 -0.273474 7.99063 -90.3961 10.8904 -0.72753 -0.718786 -0.780558 -0.758476 -0.686073 -23.315 -0.477868 -0.904196 -3.30235 -0.47788 -0.904202 90.6272 -30.6346 -105.284 44.6393 -12.498 4.31324 -16.3697 -12.7619 -30.151 -10.7047 -0.120593 -3.90113 -88.2344 -45.1441 80.43 -10.2838 15.9785 -42.4155 15.225 6.86735 -23.483 -1.19455 -0.0753778 -3.14865 5.64511 1.26133 -9.03499 -4.38939 2.92621 2.37518 
-318.382 90.2033 294.013 95.2519 43.0105 92.1243 -167.919 -21.066 94.7867 -10.8656 5.08922 -1.09998 86.6818 14.8698 -5 24.1805 -7.00158 10.7141 -179.264 24.5253 100.259 -14.2837 -7.26553 0.615581 62.8426 -0.797737 -1.9137 25.477 0.596632 3.25334 -0.296172 7.97878 -90.6115 10.9094 -0.872424 -1.13498 -0.7617 -0.921544 -1.09549 -23.2938 -0.491027 -1.34468 -3.28112 -0.491015 -1.34468 90.5189 -31.0719 -105.348 44.7762 -11.4187 5.75377 -15.3424 -14.2873 -26.5676 -8.84004 -0.239505 -2.28599 -89.1926 -46.0324 79.1037 -8.97369 17.5679 -42.2315 15.066 8.73812 -22.0339 -2.66402 -0.0916614 -4.26595 4.49557 1.42271 -7.82651 -3.45464 2.79407 1.83667 
-311.434 90.3793 287.283 96.5632 45.9379 92.2632 -165.441 -23.6307 98.8617 -15.1036 10.2647 -0.0877124 78.8231 12.1121 -0.513602 32.1956 -3.03698 11.4294 179.583 25.8543 101.065 -27.4893 -8.71697 0.962635 61.1968 1.7353 -0.877831 20.0294 3.19527 2.46451 -0.562366 8.02544 -90.9264 10.8109 -1.54744 -1.69822 -0.860183 -1.62066 -1.6285 -23.3899 -0.96563 -2.08465 -3.37723 -0.965642 -2.08465 91.201 -30.7142 -104.126 44.8761 -11.6034 5.75165 -13.4612 -15.8744 -21.916 -8.31523 -0.0207503 -5.18049 -88.5914 -45.2499 79.882 -10.7868 21.937 -38.8785 13.7039 10.6164 -18.3186 -3.43799 -0.0967433 -3.71912 7.41663 1.10337 -6.25796 -6.58182 2.29186 2.3469 
-305.411 91.6241 280.802 99.1144 47.379 89.0687 -167.667 -16.4797 98.3057 -35.5183 16.877 1.86299 64.2765 2.57683 1.24591 27.1875 -2.85042 5.09584 177.914 21.0503 99.8054 -33.4278 -9.31001 1.251 65.3324 -1.37245 -1.47677 21.1561 2.52594 2.98212 -0.63571 8.09192 -90.8867 10.6759 -1.67445 -1.61007 -0.994873 -1.74368 -1.53483 -23.5265 -1.11325 -2.03876 -3.51383 -1.11325 -2.03877 91.0606 -29.938 -104.673 44.833 -11.1373 5.60527 -12.3814 -15.9772 -19.2069 -7.79356 -0.0313712 -5.02854 -88.6687 -45.5649 79.8269 -12.9257 26.3283 -33.3232 9.01817 6.80542 -10.5373 -3.26198 -0.0818449 -5.4879 6.64801 1.12653 -4.58754 -5.95217 1.96898 1.849 
-299.739 93.2376 275.773 99.9101 47.5355 89.0321 -168.394 -1.62109 100.437 -56.1263 18.3024 2.26276 54.8176 -4.19449 -1.09445 8.25867 -5.26704 -6.02296 178.037 13.6475 100.755 -30.4707 -9.38476 1.31702 67.9452 -3.56967 -2.23922 22.683 1.89992 2.86619 -0.301293 8.15787 -90.8938 10.5477 -1.01069 -1.68642 -1.12383 -1.08392 -1.64032 -23.6512 -0.457236 -1.91213 -3.63853 -0.457222 -1.91213 90.6204 -29.7766 -105.61 43.5942 -11.8694 3.48253 -12.8333 -15.4652 -20.6912 -9.33408 -0.0623897 -4.74349 -87.9342 -45.8717 81.0464 -17.0923 25.7698 -25.5852 8.05862 3.85915 -7.34215 -1.43987 -0.0979176 -5.63956 6.18724 -0.147609 -4.3505 -6.3556 0.661812 1.22879 
